<?xml version="1.0" encoding="utf-8"?>
<!-- Generator: Adobe Illustrator 25.2.0, SVG Export Plug-In . SVG Version: 6.00 Build 0)  -->
<svg version="1.1" id="Layer_1" xmlns="http://www.w3.org/2000/svg" xmlns:xlink="http://www.w3.org/1999/xlink" x="0px" y="0px"
	 viewBox="0 0 32 32" style="enable-background:new 0 0 32 32;" xml:space="preserve">
<style type="text/css">
	.st0{fill:#424242;}
	.st1{fill:#FFFFFF;}
</style>
<circle class="st0" cx="16" cy="16" r="16"/>
<path class="st1" d="M25,10.5H13.2c-1.1-1.2-3-1.3-4.2-0.2c-0.6,0.6-1,1.4-1,2.2v9c-0.6,0-1,0.4-1,1v1h8v-1c0-0.6-0.4-1-1-1v-7h11
	c1.1,0,2-0.9,2-2S26.1,10.5,25,10.5 M11,14c-0.8,0-1.5-0.7-1.5-1.5S10.2,11,11,11s1.5,0.7,1.5,1.5S11.8,14,11,14 M15.5,13.5l-1.5-2
	h1.5l1.5,2H15.5 M19.5,13.5l-1.5-2h1.5l1.5,2H19.5 M23.5,13.5l-1.5-2h1.5l1.5,2H23.5z"/>
</svg>
