<?xml version="1.0" encoding="utf-8"?>
<!-- Generator: Adobe Illustrator 25.2.1, SVG Export Plug-In . SVG Version: 6.00 Build 0)  -->
<svg version="1.1" id="Layer_1" xmlns="http://www.w3.org/2000/svg" xmlns:xlink="http://www.w3.org/1999/xlink" x="0px" y="0px"
	 viewBox="0 0 32 32" style="enable-background:new 0 0 32 32;" xml:space="preserve">
<style type="text/css">
	.st0{fill:#424242;}
	.st1{fill:#FFFFFF;}
</style>
<circle class="st0" cx="16" cy="16" r="16"/>
<path class="st1" d="M15,6h2v2h2v2h-2v3.4l9,3.6v2l-2-0.8V26h-6v-5c0-1.1-0.9-2-2-2s-2,0.9-2,2v5H8v-7.8L6,19v-2l9-3.6V10h-2V8h2V6
	 M10,24h2v-5l-1-1l-1,1V24 M20,24h2v-5l-1-1l-1,1V24z"/>
</svg>
