<?xml version="1.0" encoding="utf-8"?>
<!-- Generator: Adobe Illustrator 25.2.0, SVG Export Plug-In . SVG Version: 6.00 Build 0)  -->
<svg version="1.1" id="Layer_1" xmlns="http://www.w3.org/2000/svg" xmlns:xlink="http://www.w3.org/1999/xlink" x="0px" y="0px"
	 viewBox="0 0 32 32" style="enable-background:new 0 0 32 32;" xml:space="preserve">
<style type="text/css">
	.st0{fill:#424242;}
	.st1{fill:#FFFFFF;}
</style>
<circle class="st0" cx="16" cy="16" r="16"/>
<path class="st1" d="M15,16h-2.2c0.8,0.5,1.5,1.1,2.2,1.7V16 M11,15c0.3-5.1,2.4-9,5-9c2.7,0,4.8,3.9,5,9.1c1.5-0.7,3.2-1.1,5-1.1
	c-5.8,2.6-3.8,12-10,12c-6,0-4.1-9.4-10-12C7.8,14,9.5,14.4,11,15 M15,15v-2h-2.8L12,15H15 M15,12v-2h-1.9c-0.2,0.6-0.4,1.3-0.6,2
	H15 M15,9V7.3c-0.6,0.3-1.1,0.9-1.5,1.7H15 M16,7v2h1v1h-1v2h2v1h-2v2h3v1h-3v2h2v1h-1.8c1.2,1.5,1.9,3,2.1,4.2
	c1-1.7,1.6-4.4,1.7-7.5C19.9,11,18.1,7,16,7z"/>
</svg>
