<?xml version="1.0" encoding="utf-8"?>
<!-- Generator: Adobe Illustrator 25.2.1, SVG Export Plug-In . SVG Version: 6.00 Build 0)  -->
<svg version="1.1" id="Layer_1" xmlns="http://www.w3.org/2000/svg" xmlns:xlink="http://www.w3.org/1999/xlink" x="0px" y="0px"
	 viewBox="0 0 32 32" style="enable-background:new 0 0 32 32;" xml:space="preserve">
<style type="text/css">
	.st0{fill:#424242;}
	.st1{fill:#FFFFFF;}
</style>
<circle class="st0" cx="16" cy="16" r="16"/>
<path class="st1" d="M12.1,23.5c-2.2-0.8-3.9-2.7-4.4-5.1l-1.7-7.8C5.8,9.5,6.5,8.4,7.6,8.2l9.8-2.1l0,0c1.1-0.2,2.1,0.5,2.3,1.5
	l0.3,1.7l4.4,0.9h0c1,0.2,1.7,1.3,1.5,2.4l-1.7,7.8c-0.8,3.8-4.5,6.2-8.3,5.4C14.4,25.5,13.1,24.6,12.1,23.5L12.1,23.5 M24,12.2
	l-9.8-2.1l-1.7,7.8v0c-0.6,2.7,1.2,5.3,3.9,5.9s5.4-1.1,5.9-3.8L24,12.2 M20,20.5c-0.6,1.1-1.9,1.7-3.2,1.4
	c-1.3-0.3-2.2-1.3-2.3-2.5L20,20.5 M12.5,9.2l-4.5,1l1.7,7.8l0,0c0.1,0.7,0.4,1.3,0.9,1.9c-0.1-0.8-0.1-1.6,0.1-2.4l0.4-2
	c-0.4-0.1-0.8-0.3-1.1-0.7c0.1-0.6,0.6-1.2,1.2-1.3c0.1,0,0.1,0,0.2,0l0.8-3.8C12.3,9.5,12.4,9.3,12.5,9.2 M19,16.2
	c0.3-0.5,1-0.8,1.7-0.7c0.7,0.1,1.2,0.7,1.3,1.3c-0.3,0.5-1,0.8-1.7,0.6C19.6,17.4,19.1,16.8,19,16.2 M14.1,15.2
	c0.3-0.5,1-0.8,1.7-0.7c0.7,0.1,1.2,0.7,1.3,1.3c-0.3,0.5-1,0.8-1.7,0.7C14.7,16.3,14.2,15.8,14.1,15.2 M16,8.4l2,0.4l-0.2-0.8
	L16,8.4z"/>
</svg>
