<?xml version="1.0" encoding="utf-8"?>
<!-- Generator: Adobe Illustrator 25.2.1, SVG Export Plug-In . SVG Version: 6.00 Build 0)  -->
<svg version="1.1" id="Layer_1" xmlns="http://www.w3.org/2000/svg" xmlns:xlink="http://www.w3.org/1999/xlink" x="0px" y="0px"
	 viewBox="0 0 32 32" style="enable-background:new 0 0 32 32;" xml:space="preserve">
<style type="text/css">
	.st0{fill:#424242;}
	.st1{fill:#FFFFFF;}
</style>
<circle class="st0" cx="16" cy="16" r="16"/>
<path class="st1" d="M10.9,10.4C12.2,7.9,14,6,16,6s3.8,1.9,5.1,4.4c-0.9,0.2-1.6,0.7-2.1,1.4c-1.2-1.7-3.5-2-5.2-0.8
	c-0.3,0.2-0.6,0.5-0.8,0.8C12.5,11.1,11.7,10.6,10.9,10.4 M19,22.1l-3-3l-3,3l-3-3l-1.3,1.3c1,4,5.1,6.4,9.1,5.4
	c2.7-0.7,4.8-2.8,5.4-5.4L22,19.1L19,22.1 M13,19.9l3-3l3,3l3-3l1.5,1.5c-0.1-2.3-0.7-4.6-1.7-6.7c-1.2,0.1-2.1,1.1-2.1,2.2h-1.5
	c0-1.2-1-2.2-2.2-2.2s-2.2,1-2.2,2.2h-1.5c0-1.2-0.9-2.1-2.1-2.2c-1,2.1-1.6,4.4-1.7,6.7l1.5-1.5L13,19.9z"/>
</svg>
