<?xml version="1.0" encoding="utf-8"?>
<!-- Generator: Adobe Illustrator 25.2.0, SVG Export Plug-In . SVG Version: 6.00 Build 0)  -->
<svg version="1.1" id="Layer_1" xmlns="http://www.w3.org/2000/svg" xmlns:xlink="http://www.w3.org/1999/xlink" x="0px" y="0px"
	 viewBox="0 0 32 32" style="enable-background:new 0 0 32 32;" xml:space="preserve">
<style type="text/css">
	.st0{fill:#424242;}
	.st1{fill:#FFFFFF;}
</style>
<circle class="st0" cx="16" cy="16" r="16"/>
<path class="st1" d="M21.7,15.2c-0.2-0.3-0.5-0.6-0.8-0.8c-0.7-0.6-1.4-1-2.1-1.7C17.3,11.3,17,8.9,18,7c-1,0.2-1.8,0.8-2.5,1.3
	c-2.6,2.1-3.6,5.8-2.4,8.9c0,0.1,0.1,0.2,0.1,0.3c0,0.2-0.1,0.4-0.3,0.5c-0.2,0.1-0.5,0-0.7-0.1c-0.1,0-0.1-0.1-0.1-0.2
	c-1.1-1.4-1.3-3.5-0.6-5.1C9.8,14,8.9,16.3,9,18.5c0.1,0.5,0.1,1,0.3,1.5c0.1,0.6,0.4,1.2,0.7,1.7c1.1,1.7,2.9,3,5,3.2
	c2.1,0.3,4.4-0.1,6.1-1.6c1.8-1.7,2.5-4.3,1.5-6.6l-0.1-0.3C22.2,16,21.7,15.2,21.7,15.2 M18.5,21.5c-0.3,0.2-0.7,0.5-1.1,0.6
	c-1.1,0.4-2.2-0.2-2.9-0.8c1.2-0.3,1.9-1.2,2.1-2.1c0.2-0.8-0.2-1.5-0.3-2.2c-0.1-0.7-0.1-1.4,0.2-2.1c0.2,0.4,0.4,0.8,0.6,1.1
	c0.8,1,2,1.4,2.2,2.8c0,0.1,0.1,0.3,0.1,0.4C19.5,20,19.1,21,18.5,21.5L18.5,21.5z"/>
</svg>
