<?xml version="1.0" encoding="utf-8"?>
<!-- Generator: Adobe Illustrator 25.2.1, SVG Export Plug-In . SVG Version: 6.00 Build 0)  -->
<svg version="1.1" id="Layer_1" xmlns="http://www.w3.org/2000/svg" xmlns:xlink="http://www.w3.org/1999/xlink" x="0px" y="0px"
	 viewBox="0 0 32 32" style="enable-background:new 0 0 32 32;" xml:space="preserve">
<style type="text/css">
	.st0{fill:#424242;}
	.st1{fill:#FFFFFF;}
</style>
<circle class="st0" cx="16" cy="16" r="16"/>
<path class="st1" d="M7,17c0,5,4,9,9,9C16,21,12,17,7,17 M16,26c5,0,9-4,9-9C20,17,16,21,16,26 M22,7v5c0,3.3-2.7,6-6,6s-6-2.7-6-6
	V7c0.7,0,1.5,0.1,2.2,0.4c0.6,0.2,1,0.6,1.4,1L16,6l2.4,2.4c0.4-0.4,0.9-0.8,1.5-1C20.5,7.1,21.3,7,22,7z"/>
</svg>
