<?xml version="1.0" encoding="utf-8"?>
<!-- Generator: Adobe Illustrator 25.2.1, SVG Export Plug-In . SVG Version: 6.00 Build 0)  -->
<svg version="1.1" id="Layer_1" xmlns="http://www.w3.org/2000/svg" xmlns:xlink="http://www.w3.org/1999/xlink" x="0px" y="0px"
	 viewBox="0 0 32 32" style="enable-background:new 0 0 32 32;" xml:space="preserve">
<style type="text/css">
	.st0{fill:#424242;}
	.st1{fill:#FFFFFF;}
</style>
<circle class="st0" cx="16" cy="16" r="16"/>
<path class="st1" d="M19.5,25L18,12h2.2l-1.1-4.5L20.8,7l1.2,5H26l-1.5,13H19.5 M9,15h5c1.7,0,3,1.3,3,3H6C6,16.3,7.3,15,9,15
	 M17,22c0,1.7-1.3,3-3,3H9c-1.7,0-3-1.3-3-3H17 M7,19h5l1.5,1.5L15,19h1c0.6,0,1,0.4,1,1s-0.4,1-1,1H7c-0.6,0-1-0.4-1-1S6.4,19,7,19
	z"/>
</svg>
