<?xml version="1.0" encoding="utf-8"?>
<!-- Generator: Adobe Illustrator 25.2.0, SVG Export Plug-In . SVG Version: 6.00 Build 0)  -->
<svg version="1.1" id="Layer_1" xmlns="http://www.w3.org/2000/svg" xmlns:xlink="http://www.w3.org/1999/xlink" x="0px" y="0px"
	 viewBox="0 0 32 32" style="enable-background:new 0 0 32 32;" xml:space="preserve">
<style type="text/css">
	.st0{fill:#424242;}
	.st1{fill:#FFFFFF;}
</style>
<circle class="st0" cx="16" cy="16" r="16"/>
<g>
	<path class="st1" d="M13,7c-3.3,0-5.9,2.7-6,6v12h9v-7.5c1.1,1,2.5,1.5,4,1.5c3.3,0,6-2.7,6-6s-2.7-6-6-6H13 M20,9c2.2,0,4,1.8,4,4
		s-1.8,4-4,4s-4-1.8-4-4S17.8,9,20,9 M20,11.2c-1,0-1.8,0.8-1.8,1.8s0.8,1.8,1.8,1.8c1,0,1.8-0.8,1.8-1.8S21,11.2,20,11.2 M8,16h1v1
		H8V16 M10,16h1v1h-1V16 M12,16h1v1h-1V16 M14,16h1v1h-1V16z"/>
</g>
</svg>
