<?xml version="1.0" encoding="utf-8"?>
<!-- Generator: Adobe Illustrator 25.2.1, SVG Export Plug-In . SVG Version: 6.00 Build 0)  -->
<svg version="1.1" id="Layer_1" xmlns="http://www.w3.org/2000/svg" xmlns:xlink="http://www.w3.org/1999/xlink" x="0px" y="0px"
	 viewBox="0 0 32 32" style="enable-background:new 0 0 32 32;" xml:space="preserve">
<style type="text/css">
	.st0{fill:#424242;}
	.st1{fill:#FFFFFF;}
</style>
<circle class="st0" cx="16" cy="16" r="16"/>
<path class="st1" d="M22,25l-2.7-4.7c0-1.7-1.1-2.8-2.4-2.8c-0.9,0-1.7,0.5-2.1,1.2c0.3-0.2,0.7-0.3,1.1-0.3c1.3,0,2.4,1.1,2.4,2.4
	c0,1.3-1,2.4-2.4,2.4h3.3V25h-8.5c-0.2,0-0.5-0.1-0.7-0.3c-0.4-0.4-0.4-1,0-1.3l0,0l0.5-0.5c-0.3-0.1-0.6-0.4-0.9-0.6
	c-0.2,0.5-0.7,0.9-1.3,0.9c-0.8,0-1.4-0.6-1.4-1.4c0-0.8,0.6-1.4,1.4-1.4l0.5,0.1v-2c0-2.6,2.1-4.7,4.7-4.7h0c2.1,0,3.8,0.8,3.8-0.5
	c0-0.9,0.2-1.3,0.5-1.8c-0.7-0.3-1.6-0.6-2.4-0.6c-0.5,0-0.9-0.4-0.9-0.9c0-0.4,0.3-0.8,0.7-0.9l-0.7,0c-0.5,0-0.9-0.4-0.9-0.9
	c0-0.5,0.4-0.9,0.9-0.9h0.9c2.1,0,3.9,1.1,4.9,2.9l0.3,0c0.7,0,1.4,0.2,1.9,0.6l0.5,0.4c2.2,1.9,1.9,3.3,1.9,3.3
	c0,1.3-1.1,2.3-2.4,2.3l-0.5,0v0.1c0,1.1-0.5,2.1-1.2,2.8l3.3,5.7H22 M22.2,11.7c-0.5,0-1,0.4-1,0.9c0,0.5,0.4,0.9,1,0.9
	c0.5,0,1-0.4,1-0.9C23.1,12.2,22.7,11.7,22.2,11.7z"/>
</svg>
