<?xml version="1.0" encoding="utf-8"?>
<!-- Generator: Adobe Illustrator 25.2.1, SVG Export Plug-In . SVG Version: 6.00 Build 0)  -->
<svg version="1.1" id="Layer_1" xmlns="http://www.w3.org/2000/svg" xmlns:xlink="http://www.w3.org/1999/xlink" x="0px" y="0px"
	 viewBox="0 0 32 32" style="enable-background:new 0 0 32 32;" xml:space="preserve">
<style type="text/css">
	.st0{fill:#424242;}
	.st1{fill:#FFFFFF;}
</style>
<circle class="st0" cx="16" cy="16" r="16"/>
<path class="st1" d="M25.7,12.8l0.4,2L6.3,18.3l-0.3-2l2.9-0.5l-0.3-2c-0.1-0.5,0.3-1.1,0.8-1.2c0.5-0.1,1.1,0.3,1.2,0.8l0.4,2
	l9.8-1.8l-0.4-2c-0.1-0.6,0.3-1.1,0.8-1.2c0.5-0.1,1.1,0.3,1.2,0.8l0.4,2L25.7,12.8 M14.1,17.9L12,21.5h8l-2.4-4.2L14.1,17.9z"/>
</svg>
