<?xml version="1.0" encoding="utf-8"?>
<!-- Generator: Adobe Illustrator 25.2.0, SVG Export Plug-In . SVG Version: 6.00 Build 0)  -->
<svg version="1.1" id="Layer_1" xmlns="http://www.w3.org/2000/svg" xmlns:xlink="http://www.w3.org/1999/xlink" x="0px" y="0px"
	 viewBox="0 0 32 32" style="enable-background:new 0 0 32 32;" xml:space="preserve">
<style type="text/css">
	.st0{fill:#424242;}
	.st1{fill:#FFFFFF;}
</style>
<circle class="st0" cx="16.5" cy="15.5" r="16"/>
<path class="st1" d="M15,7l1-1l1,1v2h7c0.6,0,1,0.4,1,1v10c0,0.6-0.4,1-1,1h-7v3c1.1,0,2,0.9,2,2h-6c0-1.1,0.9-2,2-2v-3H8
	c-0.6,0-1-0.4-1-1V10c0-0.6,0.4-1,1-1h7V7 M10,12v2h12v-2H10 M10,16v2h7v-2H10z"/>
</svg>
