<?xml version="1.0" encoding="utf-8"?>
<!-- Generator: Adobe Illustrator 25.2.0, SVG Export Plug-In . SVG Version: 6.00 Build 0)  -->
<svg version="1.1" id="Layer_1" xmlns="http://www.w3.org/2000/svg" xmlns:xlink="http://www.w3.org/1999/xlink" x="0px" y="0px"
	 viewBox="0 0 32 32" style="enable-background:new 0 0 32 32;" xml:space="preserve">
<style type="text/css">
	.st0{fill:#424242;}
	.st1{fill:#FFFFFF;}
</style>
<circle class="st0" cx="16" cy="16" r="16"/>
<path class="st1" d="M16,6c-1.9,0-3.5,1.3-3.9,3.1C11.4,8.4,10.5,8,9.5,8C7.6,8,6,9.6,6,11.5l0,0C6,13.4,7.6,15,9.5,15h1.2v1h4v-1
	h2.6v1h4v-1h1.2c1.9,0,3.5-1.6,3.5-3.5l0,0C26,9.6,24.4,8,22.5,8l0,0c-1,0-2,0.4-2.6,1.1C19.5,7.3,17.9,6,16,6 M11.2,18l-0.8,8H15
	l-0.8-8H11.2 M17.8,18L17,26h4.6l-0.8-8H17.8z"/>
</svg>
