<?xml version="1.0" encoding="utf-8"?>
<!-- Generator: Adobe Illustrator 25.2.1, SVG Export Plug-In . SVG Version: 6.00 Build 0)  -->
<svg version="1.1" id="Layer_1" xmlns="http://www.w3.org/2000/svg" xmlns:xlink="http://www.w3.org/1999/xlink" x="0px" y="0px"
	 viewBox="0 0 32 32" style="enable-background:new 0 0 32 32;" xml:space="preserve">
<style type="text/css">
	.st0{fill:#424242;}
	.st1{fill:#FFFFFF;}
</style>
<circle class="st0" cx="16" cy="16" r="16"/>
<path class="st1" d="M6,26v-2c0,0,5-2,10-2s10,2,10,2v2H6 M15.3,13.1c-1.2-3.9-7.3-3-7.3-3s0.2,7.8,5.9,6.6C13.5,13.8,12,13,12,13
	c2.8,0,3,3.4,3,3.4V21c0.3,0,0.7,0,1,0c0.3,0,0.7,0,1,0v-4.2c0,0,0-3.9,3-4.9c0,0-2,3-2,5c7,0.7,7-8.9,7-8.9S16.1,7,15.3,13.1z"/>
</svg>
