<?xml version="1.0" encoding="utf-8"?>
<!-- Generator: Adobe Illustrator 25.2.0, SVG Export Plug-In . SVG Version: 6.00 Build 0)  -->
<svg version="1.1" id="Layer_1" xmlns="http://www.w3.org/2000/svg" xmlns:xlink="http://www.w3.org/1999/xlink" x="0px" y="0px"
	 viewBox="0 0 32 32" style="enable-background:new 0 0 32 32;" xml:space="preserve">
<style type="text/css">
	.st0{fill:#424242;}
	.st1{fill:#FFFFFF;}
</style>
<circle class="st0" cx="16" cy="16" r="16"/>
<path class="st1" d="M17.3,6.8l-3.5,3.5l0.7,0.7l1.4-1.4l1.1,1.1V13c0,1.1-0.9,2-2,2h-0.5c1,1.1,1.5,2.5,1.5,4c0,0.3,0,0.7-0.1,1H19
	c0.3-2.3,2.2-4,4.5-4c0.9,0,1.8,0.3,2.5,0.8V12c0-1.1-0.9-2-2-2h-6.3l-1.1-1.1L18,7.5L17.3,6.8 M8,11c-0.6,0-1,0.4-1,1s0.4,1,1,1h5
	c0-1.1-0.9-2-2-2H8 M10,14c-0.5,0-1.1,0.1-1.6,0.2l0.4,0.9l-0.5,0.2L8,14.4c-1.1,0.5-1.9,1.3-2.5,2.3l0.9,0.4l-0.2,0.5l-0.9-0.4
	C5.1,17.8,5,18.4,5,19c0,0.5,0.1,1.1,0.2,1.6l0.9-0.4l0.2,0.5L5.4,21c0.5,1.1,1.3,1.9,2.3,2.5l0.4-0.9l0.5,0.2l-0.4,0.9
	C8.8,23.9,9.4,24,10,24c0.5,0,1.1-0.1,1.6-0.2l-0.4-0.9l0.5-0.2l0.3,0.9c1.1-0.5,1.9-1.3,2.5-2.3l-0.9-0.4l0.2-0.5l0.9,0.4
	c0.2-0.6,0.3-1.2,0.3-1.8c0-0.5-0.1-1.1-0.2-1.6l-0.9,0.4l-0.2-0.5l0.9-0.3c-0.5-1.1-1.3-1.9-2.3-2.5l-0.4,0.9l-0.5-0.2l0.4-0.9
	C11.2,14.1,10.6,14,10,14 M10,16c1.7,0,3,1.3,3,3s-1.3,3-3,3s-3-1.3-3-3S8.3,16,10,16 M23.5,17c-1.9,0-3.5,1.6-3.5,3.5
	s1.6,3.5,3.5,3.5s3.5-1.6,3.5-3.5S25.4,17,23.5,17 M23.5,19c0.8,0,1.5,0.7,1.5,1.5S24.3,22,23.5,22S22,21.3,22,20.5S22.7,19,23.5,19
	z"/>
</svg>
