<?xml version="1.0" encoding="utf-8"?>
<!-- Generator: Adobe Illustrator 25.2.0, SVG Export Plug-In . SVG Version: 6.00 Build 0)  -->
<svg version="1.1" id="Layer_1" xmlns="http://www.w3.org/2000/svg" xmlns:xlink="http://www.w3.org/1999/xlink" x="0px" y="0px"
	 viewBox="0 0 32 32" style="enable-background:new 0 0 32 32;" xml:space="preserve">
<style type="text/css">
	.st0{fill:#424242;}
	.st1{fill:#FFFFFF;}
</style>
<circle class="st0" cx="16" cy="16" r="16"/>
<path class="st1" d="M16,13c-1.1,0-2-0.9-2-2c0-1.1,0.9-2,2-2c1.1,0,2,0.9,2,2C18,12.1,17.1,13,16,13 M16,18c-1.1,0-2-0.9-2-2
	c0-1.1,0.9-2,2-2c1.1,0,2,0.9,2,2C18,17.1,17.1,18,16,18 M16,23c-1.1,0-2-0.9-2-2c0-1.1,0.9-2,2-2c1.1,0,2,0.9,2,2
	C18,22.1,17.1,23,16,23 M24,14h-3v-1.1c1.7-0.4,3-2,3-3.9h-3V8c0-0.6-0.4-1-1-1h-8c-0.6,0-1,0.4-1,1v1H8c0,1.9,1.3,3.4,3,3.9V14H8
	c0,1.9,1.3,3.4,3,3.9V19H8c0,1.9,1.3,3.4,3,3.9V24c0,0.6,0.4,1,1,1h8c0.6,0,1-0.4,1-1v-1.1c1.7-0.5,3-2,3-3.9h-3v-1.1
	C22.7,17.4,24,15.9,24,14z"/>
</svg>
