<?xml version="1.0" encoding="utf-8"?>
<!-- Generator: Adobe Illustrator 25.2.1, SVG Export Plug-In . SVG Version: 6.00 Build 0)  -->
<svg version="1.1" id="Layer_1" xmlns="http://www.w3.org/2000/svg" xmlns:xlink="http://www.w3.org/1999/xlink" x="0px" y="0px"
	 viewBox="0 0 32 32" style="enable-background:new 0 0 32 32;" xml:space="preserve">
<style type="text/css">
	.st0{fill:#424242;}
	.st1{fill:#FFFFFF;}
</style>
<circle class="st0" cx="16" cy="16" r="16"/>
<path class="st1" d="M15,25v-4.3c-0.5,0.2-1,0.3-1.5,0.3C11,21,9,19,9,16.5c0-1.3,0.5-2.4,1.4-3.2c-0.2-0.5-0.4-1.1-0.4-1.8
	C10,9,12,7,14.5,7c1.6,0,2.9,0.8,3.8,2c0.1,0,0.2,0,0.2,0c3,0,5.5,2.5,5.5,5.5S21.5,20,18.5,20c-0.5,0-1-0.1-1.5-0.2V25H15z"/>
</svg>
